<svg xmlns="http://www.w3.org/2000/svg" width="32" height="32"><g color="#000" font-family="sans-serif" font-weight="400"><path style="line-height:normal;text-indent:0;text-align:start;text-decoration-line:none;text-decoration-style:solid;text-decoration-color:#000;text-transform:none;block-progression:tb;isolation:auto;mix-blend-mode:normal" fill="#2b4255" d="m-200.105-6.633-1.075.088-.047.006-.03.006.148.84.011.145.014-.002v.002l.01-.002 1.023-.084.872.01.01-1-.89-.01zm1.876 1.09.22.022.01.002.978.19.006.001.65.188.276-.961-.694-.2-.043-.01-1.03-.199-.044-.006-.229-.023zm-4.076-.806-.045.01-1.056.289-.045.013-.787.295.351.938.774-.29 1.004-.275.04-.006-.173-.984zm6.84 1.529.319.123.888.435.496.301.518-.855-.516-.313-.039-.021-.932-.457-.039-.018-.336-.129zm-9.998-.358-.039.022-.904.543-.037.025-.52.38.59.806.508-.371.01-.006.853-.51.248-.12-.435-.9zm12.494 1.752.37.27.011.01.74.652.01.008.301.319.725-.69-.334-.35-.031-.03-.786-.688-.033-.028-.383-.28zm-15.14.17-.034.031-.718.752-.028.034-.32.398.781.625.307-.383.69-.722.318-.278-.658-.752zm17.205 1.805.36.45.003.005.568.863.137.258.883-.47-.147-.276-.023-.039-.586-.892-.027-.036-.387-.486zm-19.237.72-.021.038-.5.914-.02.039-.156.361.916.4.15-.343.481-.879.006-.012.291-.433-.832-.555zm20.737 1.706.328.777.316 1.002.002.014h.002l.002.008.084-.028.89-.193-.01-.037-.01-.045-.33-1.045-.017-.043-.335-.797zm-22.043 1.279-.012.043-.244 1.027-.008.045-.035.242.99.141.03-.213.234-.984.214-.647-.947-.318zm22.941 1.482-.037.004v.004h-.002l.006.022.123 1.006.03.873 1-.031-.03-.891-.004-.045-.13-1.06-.009-.045-.01-.04zm-23.418 1.813v.045l.045 1.098.998-.041-.04-1.07.042-.882-.998-.052zm23.483 1.258v.006l-.143.963-.168.705.973.232.172-.722.008-.043.152-1.034.004-.043.014-.215-1-.056zm-.688 2.887-.4.917-.284.524.88.476.296-.546.02-.04.412-.953.015-.04.108-.321-.95-.316zm-1.426 2.623-.629.785-.32.336.72.691.34-.355.03-.034.656-.818.026-.037.253-.383-.834-.553zm-2.076 2.168-.01.006-.848.613-.228.135.508.86.25-.146.037-.025.877-.63.035-.03.475-.414-.657-.754z" overflow="visible" transform="translate(217 6.638)"/><path style="line-height:normal;text-indent:0;text-align:start;text-decoration-line:none;text-decoration-style:solid;text-decoration-color:#000;text-transform:none;block-progression:tb;isolation:auto;mix-blend-mode:normal" fill="#f05542" d="M-214.111 7.926a.5.5 0 0 0-.502.5v10.949a.5.5 0 0 0 .258.438l9.908 5.476a.5.5 0 0 0 .484 0l9.906-5.476a.5.5 0 0 0 .258-.438V8.426a.5.5 0 0 0-.742-.438l-9.664 5.342-9.666-5.342a.5.5 0 0 0-.24-.062zm.498 1.348 9.166 5.064a.5.5 0 0 0 .484 0l9.164-5.064V19.08l-9.406 5.198-9.408-5.199V9.274z" overflow="visible" transform="translate(217 6.638)"/><path style="line-height:normal;text-indent:0;text-align:start;text-decoration-line:none;text-decoration-style:solid;text-decoration-color:#000;text-transform:none;block-progression:tb;isolation:auto;mix-blend-mode:normal" fill="#f05542" fill-rule="evenodd" d="M-204.203 2.451a.5.5 0 0 0-.244.063l-9.908 5.474a.5.5 0 0 0 0 .875l9.908 5.475a.5.5 0 0 0 .484 0l9.906-5.475a.5.5 0 0 0 0-.875l-9.906-5.474a.5.5 0 0 0-.24-.063zm-.002 1.07 8.873 4.905-8.873 4.904-8.875-4.904 8.875-4.904z" overflow="visible" transform="translate(217 6.638)"/><path style="line-height:normal;text-indent:0;text-align:start;text-decoration-line:none;text-decoration-style:solid;text-decoration-color:#000;text-transform:none;block-progression:tb;isolation:auto;mix-blend-mode:normal" fill="#f05542" fill-rule="evenodd" d="M-204.213 13.393a.5.5 0 0 0-.492.508v10.95a.5.5 0 1 0 1 0v-10.95a.5.5 0 0 0-.508-.508z" overflow="visible" transform="translate(217 6.638)"/></g></svg>