<svg xmlns="http://www.w3.org/2000/svg" enable-background="new 0 0 1080 1080" viewBox="0 0 1080 1080"><path fill="#34a853" d="M921.1,336.2c-4.2-1-8.6,0.3-11.6,3.4L836.1,413l-52.8-4.5c-6.6-0.7-11.9-5.9-12.6-12.6l-5.6-52.8l73.3-73.3
		c3-3,4.3-7.3,3.4-11.5c-0.9-4.2-3.9-7.6-7.9-9.1c-59.3-22.1-126.8-7.2-171.9,37.9c-37.7,37.7-54.5,91.9-44.6,145.4
		c2.7,11.7-0.7,23.7-9.2,32.1l-68,68L471,463.3c-7.7-7.7-11-19.8-9.1-32.6c10-52.8-6.7-106.9-44.7-144.9
		c-45.8-45.8-111.7-60.3-171.9-37.9c-4,1.5-7,4.9-7.9,9.1c-0.9,4.2,0.4,8.5,3.4,11.5l73.3,73.3l-5.6,52.9
		c-0.7,6.6-5.9,11.9-12.4,12.5l-51.7,4.5L171,338.4c-3-3-7.3-4.3-11.4-3.4c-4.1,0.9-7.5,3.7-9.1,7.6c-23.3,59.1-9,126.6,36.5,172.2
		c37.7,37.7,91.9,54.5,144.5,44.8c13.2-2,25.3,1.2,33,9l69.3,69.3l-78,78c-13.8,13.8-21.5,32.5-21.5,52.6s7.6,38.7,22,53
		c15,13.5,33.1,20.7,52.1,20.7c20.9,0,38.5-7.1,52.6-21.2l78-78l77.3,78.4c15,13.5,33.1,20.7,52.1,20.7c20.9,0,38.5-7.1,52.6-21.2
		c0.1-0.1,0.2-0.2,0.2-0.2c27.4-28.8,28.7-75.2,2.2-106.3l-77.9-76.8l68-68c7.8-7.7,19.8-11,32.6-9.1C798.9,570.7,853,554,891,516
		c45-45,60.4-112.4,39.2-171.8C928.7,340.2,925.3,337.2,921.1,336.2z M443.3,803.3c-9.3,9.3-20.7,13.8-34.9,13.8
		c-12.8,0-25-4.9-34.9-13.8c-9.1-9.1-14.2-21.5-14.2-34.9s5-25.8,14.2-34.9l76.3-76.3l70.8,68.8L443.3,803.3z M703.2,803.4
		c-9.3,9.2-20.7,13.7-34.8,13.7c-12.8,0-25-4.9-34.8-13.8l-85.1-86.3L382.3,550.8c-11-11-26.2-16.9-43.1-16.9
		c-3.8,0-7.7,0.3-11.7,0.9c-44.9,8.3-90.7-5.9-122.6-37.8c-33.7-33.7-47.2-81.6-36.8-126.5l62.9,62.9c2.6,2.6,6.3,3.9,9.9,3.6
		l57.7-5c18.4-1.8,33.1-16.5,34.9-34.9l6.2-58.7c0.4-3.8-0.9-7.5-3.6-10.2l-62.6-62.6c45.3-9.8,92.3,3.9,126.2,37.8
		c31.6,31.6,46.1,78.6,37.7,123c-3.3,21.2,2.6,41,16,54.5l72.9,72.9c0.4,2.6,1.3,5.1,3.3,7.1l87.5,87.5c1.9,1.9,4.5,2.9,7.1,3.3
		l80.9,79.7C722.7,752.1,721.8,783.7,703.2,803.4z M873.3,498.3c-31.6,31.6-78.6,46.1-123,37.7c-21.2-3.3-41,2.6-54.5,16l-68,68
		L558,550.3l68-68c14.6-14.6,20.5-35.3,16-54.8c-8.3-44.9,5.9-90.7,37.8-122.6c33.3-33.4,81.1-47.2,126.1-37.7l-62.6,62.6
		c-2.7,2.7-4,6.4-3.6,10.2l6.2,58.7c1.8,18.4,16.5,33.1,35.1,35l58.7,5c3.7,0.3,7.3-1,9.9-3.6l62.3-62.3
		C920.8,417.4,906.5,465.1,873.3,498.3z" class="color000000 svgShape"/></svg>